<?xml version="1.0" encoding="utf-8"?><svg width="18" height="18" viewBox="0 0 18 18" xmlns="http://www.w3.org/2000/svg" xmlns:xlink="http://www.w3.org/1999/xlink"><svg width="18" height="18" viewBox="0 0 18 18" id="icon-important-ver-2-14" xmlns="http://www.w3.org/2000/svg"><defs><path id="aa" d="M9 5.143a5.786 5.786 0 015.786 5.786v5.785h1.428a.5.5 0 01.5.5v.286a.5.5 0 01-.5.5H1.786a.5.5 0 01-.5-.5v-.286a.5.5 0 01.5-.5h1.428v-5.785A5.785 5.785 0 019 5.143zm0 1.286a4.5 4.5 0 00-4.493 4.253l-.007.247v5.785h9V10.93a4.5 4.5 0 00-4.253-4.494L9 6.43zm-1.929 7.714v1.286H5.786v-1.286H7.07zm.243-5.335c.16.114.37.44.287.773-.318.434-.493 1.015-.524 1.743l-.006.247v1.286H5.786v-1.286c0-1.194.214-2.051.643-2.571.328-.315.623-.379.885-.192zM.994 4.97l.082.038 1.917 1.107a.5.5 0 01.221.601l-.037.082-.143.248a.5.5 0 01-.601.22l-.082-.037L.433 6.12a.502.502 0 01-.221-.602l.038-.081.143-.248a.5.5 0 01.601-.22zm16.825.221l.143.248a.5.5 0 01-.183.683l-1.917 1.107a.5.5 0 01-.683-.183l-.143-.248a.5.5 0 01.183-.683l1.917-1.107a.5.5 0 01.683.183zM4.336 1.811l1.348 1.757a.499.499 0 01-.092.7l-.227.175a.5.5 0 01-.701-.093L3.316 2.594a.5.5 0 01.092-.701l.227-.174a.5.5 0 01.701.092zm9.96-.14l.076.048.227.174a.5.5 0 01.14.624l-.048.077-1.348 1.756a.5.5 0 01-.625.141l-.076-.048-.227-.174a.5.5 0 01-.14-.625l.048-.076 1.348-1.757a.498.498 0 01.625-.14zM9.143 0a.5.5 0 01.5.5v2.214a.5.5 0 01-.5.5h-.286a.5.5 0 01-.5-.5V.5a.5.5 0 01.5-.5h.286z"/></defs><g fill="none" fill-rule="evenodd"><mask id="ab" fill="#fff"><use xlink:href="#aa"/></mask><use fill="#000" xlink:href="#aa"/><g fill="#666" fill-rule="nonzero" mask="url(#ab)"><path d="M0 0h18v18H0z"/></g></g></svg></svg>